<?xml version="1.0"?>
<svg xmlns="http://www.w3.org/2000/svg" xmlns:xlink="http://www.w3.org/1999/xlink" xmlns:svgjs="http://svgjs.com/svgjs" version="1.1" width="512" height="512" x="0" y="0" viewBox="0 0 512 512.00125" style="enable-background:new 0 0 512 512" xml:space="preserve" class=""><g><path xmlns="http://www.w3.org/2000/svg" d="m170.535156 47.488281c-49.949218 0-90.433594 40.265625-90.433594 89.9375v126.847657c0 6.585937 5.367188 11.925781 11.988282 11.925781h156.894531c6.621094 0 11.988281-5.339844 11.988281-11.925781 0-3.234376 0-123.867188 0-126.847657 0-49.671875-40.488281-89.9375-90.4375-89.9375zm0 0" fill="#707487" data-original="#707487" style="" class=""/><path xmlns="http://www.w3.org/2000/svg" d="m111.179688 264.273438c0-1.320313 0-125.527344 0-126.847657 0-44.402343 32.351562-81.285156 74.894531-88.609375-5.046875-.871094-10.238281-1.328125-15.539063-1.328125-49.949218 0-90.433594 40.265625-90.433594 89.9375v126.851563c0 6.582031 5.367188 11.921875 11.988282 11.921875h31.078125c-6.621094 0-11.988281-5.339844-11.988281-11.925781zm0 0" fill="#52586d" data-original="#52586d" style="" class=""/><path xmlns="http://www.w3.org/2000/svg" d="m235.089844 163.757812v48.144532c0 .585937-.03125 1.164062-.046875 1.75 16.226562 1.671875 31.429687-10.117188 31.429687-24.945313 0-14.8125-15.179687-26.59375-31.382812-24.949219zm0 0" fill="#f0a479" data-original="#f0a479" style="" class=""/><path xmlns="http://www.w3.org/2000/svg" d="m260.972656 203.347656c0-10.011718 0-20.101562 0-29.28125-5.851562-7.039062-15.660156-11.34375-25.882812-10.308594v48.144532c0 .585937-.03125 1.164062-.046875 1.75 10.242187 1.054687 20.070312-3.253906 25.929687-10.304688zm0 0" fill="#e5966e" data-original="#e5966e" style=""/><path xmlns="http://www.w3.org/2000/svg" d="m304.082031 330.707031-97.3125-37.6875-4.003906 32.648438h-66.191406l-3.371094-32.648438-97.210937 37.6875s-35.992188 14.796875-35.992188 55.824219v113.476562c0 6.621094 5.371094 11.992188 11.996094 11.992188h316.082031c6.625 0 11.996094-5.371094 11.996094-11.992188 0-27.425781 0-70.753906 0-113.476562 0-41.027344-35.992188-55.824219-35.992188-55.824219zm0 0" fill="#049594" data-original="#00aaf0" style="" class=""/><g xmlns="http://www.w3.org/2000/svg" fill="#039add"><path d="m30.910156 500.007812c0-31.039062 0-92.886718 0-130.421874 0-21.3125 9.707032-35.53125 19.039063-44.289063l-13.957031 5.410156s-35.992188 14.796875-35.992188 55.828125v113.472656c0 6.625 5.371094 11.992188 11.992188 11.992188h30.910156c-6.625 0-11.992188-5.371094-11.992188-11.992188zm0 0" fill="#068585" data-original="#039add" style="" class=""/><path d="m73.019531 512v-72.429688c0-4.265624-3.457031-7.726562-7.726562-7.726562-4.265625 0-7.726563 3.460938-7.726563 7.726562v72.429688zm0 0" fill="#068585" data-original="#039add" style="" class=""/><path d="m177.761719 512v-91.675781c0-4.265625-3.457031-7.726563-7.726563-7.726563-4.265625 0-7.726562 3.460938-7.726562 7.726563v91.675781zm0 0" fill="#068585" data-original="#039add" style="" class=""/><path d="m282.503906 439.570312c0-4.265624-3.457031-7.726562-7.726562-7.726562-4.265625 0-7.726563 3.460938-7.726563 7.726562v72.429688h15.453125zm0 0" fill="#068585" data-original="#039add" style="" class=""/></g><path xmlns="http://www.w3.org/2000/svg" d="m250.984375 10.851562-34.253906-6.476562c-30.859375-5.832031-62.535157-5.832031-93.394531 0l-34.25 6.476562c-4.71875.894532-7.527344 5.789063-5.914063 10.3125l20.011719 56.101563 26.136718-3.65625c27.011719-3.78125 54.417969-3.78125 81.429688 0l26.136719 3.660156 20.011719-56.105469c1.613281-4.523437-1.195313-9.417968-5.914063-10.3125zm0 0" fill="#e4eaf8" data-original="#e4eaf8" style="" class=""/><path xmlns="http://www.w3.org/2000/svg" d="m114.078125 14.171875c-.925781-2.929687-.386719-5.992187 1.136719-8.261719l-26.128906 4.941406c-4.71875.894532-7.527344 5.789063-5.914063 10.3125l20.011719 56.101563 26.136718-3.65625c1.152344-.164063 2.308594-.308594 3.464844-.457031zm0 0" fill="#d8dce5" data-original="#d8dce5" style="" class=""/><path xmlns="http://www.w3.org/2000/svg" d="m181.429688 27.527344h-3.667969v-3.667969c0-4.269531-3.460938-7.726563-7.726563-7.726563-4.269531 0-7.726562 3.457032-7.726562 7.726563v3.667969h-3.671875c-4.265625 0-7.726563 3.460937-7.726563 7.726562 0 4.269532 3.460938 7.726563 7.726563 7.726563h3.671875v3.671875c0 4.269531 3.457031 7.726562 7.726562 7.726562 4.265625 0 7.726563-3.457031 7.726563-7.726562v-3.671875h3.667969c4.269531 0 7.730468-3.457031 7.730468-7.726563 0-4.265625-3.460937-7.726562-7.730468-7.726562zm0 0" fill="#54b9a6" data-original="#00c3ff" style="" class=""/><path xmlns="http://www.w3.org/2000/svg" d="m133.203125 263.089844v29.929687l3.371094 30.589844h66.191406l4.003906-30.589844v-29.800781c-23.527343 15.832031-53.359375 13.34375-73.566406-.128906zm0 0" fill="#f0a479" data-original="#f0a479" style="" class=""/><path xmlns="http://www.w3.org/2000/svg" d="m163.996094 273.859375c-11.21875-1.066406-21.933594-4.859375-30.792969-10.769531v29.929687l3.371094 30.589844h27.421875zm0 0" fill="#e5966e" data-original="#e5966e" style=""/><path xmlns="http://www.w3.org/2000/svg" d="m136.574219 323.609375h66.191406l-32.730469 115.960937zm0 0" fill="#e4eaf8" data-original="#e4eaf8" style="" class=""/><path xmlns="http://www.w3.org/2000/svg" d="m163.996094 323.609375h-27.421875l27.421875 95.023437zm0 0" fill="#d8dce5" data-original="#d8dce5" style="" class=""/><path xmlns="http://www.w3.org/2000/svg" d="m206.769531 293.019531-36.734375 146.550781 76.058594-78.726562c1.609375-1.664062 1.386719-3.875-.53125-5.367188l-17.550781-13.640624c-1.71875-1.335938-2.09375-3.269532-.941407-4.875l16.4375-16.707032c1.503907-1.527344 2.027344-3.417968 1.445313-5.226562-.769531-2.394532-1.703125-5.308594-2.636719-8.242188zm0 0" fill="#54b9a6" data-original="#00c3ff" style="" class=""/><path xmlns="http://www.w3.org/2000/svg" d="m170.035156 439.570312-36.832031-146.550781v.027344-.027344l-35.433594 13.738281c-.941406 2.945313-1.875 5.867188-2.648437 8.269532-.582032 1.808594-.058594 3.699218 1.445312 5.226562l16.4375 16.703125c1.152344 1.609375.777344 3.542969-.945312 4.878907l-17.546875 13.636718c-1.921875 1.496094-2.140625 3.707032-.53125 5.371094zm0 0" fill="#54b9a6" data-original="#00c3ff" style="" class=""/><path xmlns="http://www.w3.org/2000/svg" d="m231.871094 151.957031c-8.046875-2.433593-23.820313-8.839843-39.015625-24.425781-2.480469-2.542969-6.539063-2.355469-8.8125.21875-10.644531 12.078125-39.285157 41.585938-75.179688 54.765625-2.355469.863281-3.917969 3.09375-3.917969 5.589844v23.792969c0 33.597656 26.464844 64.300781 66.523438 64.300781 35.652344 0 64.65625-28.84375 64.65625-64.300781v-54.238282c0-2.621094-1.726562-4.9375-4.253906-5.703125zm0 0" fill="#f7b594" data-original="#f7b594" style="" class=""/><path xmlns="http://www.w3.org/2000/svg" d="m136.023438 211.902344v-42.90625c-8.394532 5.25-17.511719 9.976562-27.160157 13.519531-2.355469.863281-3.917969 3.09375-3.917969 5.59375v23.792969c0 33.59375 26.460938 64.296875 66.523438 64.296875 5.167969 0 10.191406-.625 15.011719-1.769531-30.910157-6.953126-50.457031-33.664063-50.457031-62.527344zm0 0" fill="#f0a479" data-original="#f0a479" style="" class=""/></g></svg>
