<svg id="Capa_1" enable-background="new 0 0 512 512" height="512" viewBox="0 0 512 512" width="512" xmlns="http://www.w3.org/2000/svg"><g><path d="m149.376 214.023h213.247v138.961h-213.247z" fill="#5680a6"/><path d="m301.2 283.24v60.38l-45.2 34.05-45.2-34.05v-60.38c11.28 7.43 24.77 11.74 39.29 11.74h11.82c14.52 0 28.01-4.31 39.29-11.74z" fill="#fed2a4"/><path d="m247.677 338.123 23.776 17.906-15.453 21.641-45.204-34.047v-60.383c9.076 5.975 19.584 9.941 30.905 11.25v31.652c0 4.71 2.213 9.147 5.976 11.981z" fill="#ffbd86"/><path d="m301.2 283.24v21.64c-11.66 6.44-25.06 10.1-39.29 10.1h-11.82c-14.23 0-27.63-3.66-39.29-10.1v-21.64c11.28 7.43 24.77 11.74 39.29 11.74h11.82c14.52 0 28.01-4.31 39.29-11.74z" fill="#ffbd86"/><path d="m333.521 111.999v47.671l10 5.496v47.667l-10 6.024v14.517c0 39.549-32.059 71.608-71.608 71.608h-11.826c-39.549 0-71.608-32.059-71.608-71.608v-121.375z" fill="#fff3de"/><path d="m271.453 304.344c-3.121.422-6.305.639-9.539.639h-11.826c-39.549 0-71.608-32.059-71.608-71.608v-14.517l-10-5.524v-49.167l10-4.496v-47.671h30.905v121.376c-.001 36.313 27.031 66.312 62.068 70.968z" fill="#ffe5c2"/><path d="m333.521 111.999v67.745c-17.41-2.05-33.254-10.044-45.101-22.355-19.563 14.742-43.494 22.88-68.548 22.88h-41.393v-68.27z" fill="#ffe5c2"/><path d="m212.65 31.67c-35.036 0-63.439 28.402-63.439 63.439v64.561h70.66c29.031 0 54.97-13.248 72.102-34.027 6.355 17.5 26.087 31.525 41.545 34.027 0 0-.019 5.83 5.044 6.923l23.896-.135v-60.666c0-23.261-18.863-42.124-42.124-42.124-.185-17.719-14.608-31.997-32.337-31.997h-75.347z" fill="#5680a6"/><path d="m212.65 31.666h29.268c-35.036 0-63.439 28.402-63.439 63.439v64.566l-29.267 9.995v-74.562c0-35.036 28.401-63.438 63.438-63.438z" fill="#497090"/><path d="m431.996 406.559v105.439h-351.992v-105.439c0-18.883 12.249-35.593 30.267-41.269l100.556-31.668 45.173 34.048 45.174-34.047 100.556 31.668c18.017 5.675 30.266 22.385 30.266 41.268z" fill="#f2fbff"/><path d="m210.827 333.622 12.146 9.148-71.494 22.52c-18.018 5.676-30.267 22.386-30.267 41.269v105.439h-41.208v-105.439c0-18.883 12.249-35.593 30.267-41.269z" fill="#dff6fd"/><g><path d="m222.64 205.709c-4.268 0-7.726-3.459-7.726-7.726v-10.141c0-4.268 3.459-7.726 7.726-7.726 4.268 0 7.726 3.459 7.726 7.726v10.141c0 4.268-3.459 7.726-7.726 7.726z" fill="#5680a6"/></g><g><path d="m289.208 205.709c-4.268 0-7.726-3.459-7.726-7.726v-10.141c0-4.268 3.459-7.726 7.726-7.726s7.726 3.459 7.726 7.726v10.141c.001 4.268-3.458 7.726-7.726 7.726z" fill="#5680a6"/></g><g><path d="m335.999 455.375h-37.539c-4.268 0-7.726-3.459-7.726-7.726s3.459-7.726 7.726-7.726h37.539c4.268 0 7.726 3.459 7.726 7.726s-3.458 7.726-7.726 7.726z" fill="#9cf8d2"/></g><g><path d="m256 267.1c-14.945 0-27.103-12.158-27.103-27.103 0-4.268 3.459-7.726 7.726-7.726 4.268 0 7.726 3.459 7.726 7.726 0 6.424 5.226 11.65 11.65 11.65s11.65-5.226 11.65-11.65c0-4.268 3.459-7.726 7.726-7.726s7.726 3.459 7.726 7.726c.002 14.945-12.156 27.103-27.101 27.103z" fill="#fed2a4"/></g><path d="m162.755 22.98 27.441 68.518c1.085 2.71 3.738 4.452 6.657 4.387 39.47-.884 78.944.225 118.42.136 2.856-.006 5.422-1.753 6.484-4.405l27.488-68.635c1.521-3.798-.525-8.096-4.434-9.301-59.089-18.224-118.303-18.259-177.643.011-3.902 1.201-5.931 5.499-4.413 9.289z" fill="#9cf8d2"/><path d="m193.66 22.981 29.076 72.576c-8.622.035-17.252.135-25.877.326-2.919.065-5.573-1.679-6.658-4.39l-27.446-68.512c-1.521-3.798.524-8.098 4.434-9.301 34.822-10.717 69.592-15.129 104.326-13.26-24.452 1.304-48.93 5.725-73.426 13.262-3.909 1.203-5.95 5.503-4.429 9.299z" fill="#6cf5c2"/><path d="m255.835 80.148c-9.219 0-16.816-7.072-17.65-16.076-9.004-.835-16.076-8.432-16.076-17.649s7.073-16.815 16.076-17.65c.835-9.003 8.433-16.076 17.65-16.076s16.815 7.073 17.65 16.076c9.003.835 16.076 8.433 16.076 17.65s-7.072 16.814-16.076 17.649c-.834 9.004-8.431 16.076-17.65 16.076z" fill="#6cf5c2"/><path d="m271.835 38.696h-8.274v-8.274c0-4.268-3.459-7.726-7.726-7.726-4.268 0-7.726 3.459-7.726 7.726v8.274h-8.274c-4.268 0-7.726 3.459-7.726 7.726s3.459 7.726 7.726 7.726h8.274v8.274c0 4.268 3.459 7.726 7.726 7.726 4.268 0 7.726-3.459 7.726-7.726v-8.274h8.274c4.268 0 7.726-3.459 7.726-7.726s-3.458-7.726-7.726-7.726z" fill="#fd8087"/><path d="m192.001 419.485v92.515h32v-76.604c0-2.146.985-4.174 2.672-5.501l108.682-85.504-34.15-10.764-106.419 80.27c-1.754 1.322-2.785 3.391-2.785 5.588z" fill="#dff6fd"/><g><g><path d="m380.93 438.34v73.658h-15.453v-73.658c0-4.265 3.461-7.726 7.726-7.726 4.266 0 7.727 3.461 7.727 7.726z" fill="#dff6fd"/></g><g><path d="m146.523 438.34v73.658h-15.453v-73.658c0-4.265 3.462-7.726 7.726-7.726 4.265 0 7.727 3.461 7.727 7.726z" fill="#dff6fd"/></g></g><path d="m176.001 344.594 53.122 43.402 26.877-20.322-45.204-34.047z" fill="#dff6fd"/><g fill="#fed2a4"><path d="m333.519 159.67h15.515c11.89 0 21.528 9.638 21.528 21.528v16.131c0 11.89-9.638 21.528-21.528 21.528h-15.515z"/><path d="m178.481 159.67h-15.515c-11.89 0-21.528 9.638-21.528 21.528v16.131c0 11.89 9.638 21.528 21.528 21.528h15.515z"/></g></g></svg>